<mxfile host="app.diagrams.net" agent="Mozilla/5.0 (X11; Linux x86_64) AppleWebKit/537.36 (KHTML, like Gecko) Chrome/131.0.0.0 Safari/537.36" version="24.9.3">
  <diagram id="R2lEEEUBdFMjLlhIrx00" name="Page-1">
    <mxGraphModel dx="2182" dy="442" grid="0" gridSize="10" guides="1" tooltips="1" connect="1" arrows="1" fold="1" page="1" pageScale="1" pageWidth="850" pageHeight="1100" math="0" shadow="0" extFonts="Permanent Marker^https://fonts.googleapis.com/css?family=Permanent+Marker">
      <root>
        <mxCell id="0" />
        <mxCell id="1" parent="0" />
        <mxCell id="tc51dqhHGQ9-r1dmS11I-10" style="edgeStyle=orthogonalEdgeStyle;rounded=0;orthogonalLoop=1;jettySize=auto;html=1;entryX=0;entryY=0.5;entryDx=0;entryDy=0;strokeColor=default;endArrow=none;endFill=0;" parent="1" source="tc51dqhHGQ9-r1dmS11I-1" target="tc51dqhHGQ9-r1dmS11I-9" edge="1">
          <mxGeometry relative="1" as="geometry" />
        </mxCell>
        <mxCell id="tc51dqhHGQ9-r1dmS11I-11" style="edgeStyle=orthogonalEdgeStyle;rounded=0;orthogonalLoop=1;jettySize=auto;html=1;exitX=1;exitY=0.25;exitDx=0;exitDy=0;entryX=0;entryY=0.5;entryDx=0;entryDy=0;endArrow=none;endFill=0;" parent="1" source="tc51dqhHGQ9-r1dmS11I-1" target="tc51dqhHGQ9-r1dmS11I-8" edge="1">
          <mxGeometry relative="1" as="geometry" />
        </mxCell>
        <mxCell id="tc51dqhHGQ9-r1dmS11I-12" style="edgeStyle=orthogonalEdgeStyle;rounded=0;orthogonalLoop=1;jettySize=auto;html=1;entryX=0.5;entryY=1;entryDx=0;entryDy=0;endArrow=none;endFill=0;exitX=0;exitY=0.25;exitDx=0;exitDy=0;" parent="1" source="tc51dqhHGQ9-r1dmS11I-1" target="tc51dqhHGQ9-r1dmS11I-6" edge="1">
          <mxGeometry relative="1" as="geometry" />
        </mxCell>
        <mxCell id="tc51dqhHGQ9-r1dmS11I-13" style="edgeStyle=orthogonalEdgeStyle;rounded=0;orthogonalLoop=1;jettySize=auto;html=1;entryX=0.5;entryY=1;entryDx=0;entryDy=0;endArrow=none;endFill=0;" parent="1" source="tc51dqhHGQ9-r1dmS11I-1" target="tc51dqhHGQ9-r1dmS11I-7" edge="1">
          <mxGeometry relative="1" as="geometry" />
        </mxCell>
        <mxCell id="tc51dqhHGQ9-r1dmS11I-56" style="edgeStyle=orthogonalEdgeStyle;rounded=0;orthogonalLoop=1;jettySize=auto;html=1;exitX=0.692;exitY=0.067;exitDx=0;exitDy=0;entryX=0;entryY=0.5;entryDx=0;entryDy=0;exitPerimeter=0;shape=link;" parent="1" source="tc51dqhHGQ9-r1dmS11I-1" target="tc51dqhHGQ9-r1dmS11I-55" edge="1">
          <mxGeometry relative="1" as="geometry">
            <Array as="points">
              <mxPoint x="231" y="183" />
              <mxPoint x="231" y="154" />
              <mxPoint x="235" y="154" />
              <mxPoint x="235" y="152" />
              <mxPoint x="417" y="152" />
            </Array>
          </mxGeometry>
        </mxCell>
        <mxCell id="tc51dqhHGQ9-r1dmS11I-75" style="edgeStyle=orthogonalEdgeStyle;shape=connector;rounded=0;orthogonalLoop=1;jettySize=auto;html=1;exitX=0.25;exitY=1;exitDx=0;exitDy=0;strokeColor=default;align=center;verticalAlign=middle;fontFamily=Helvetica;fontSize=11;fontColor=default;labelBackgroundColor=default;endArrow=none;endFill=0;" parent="1" source="tc51dqhHGQ9-r1dmS11I-1" target="tc51dqhHGQ9-r1dmS11I-74" edge="1">
          <mxGeometry relative="1" as="geometry" />
        </mxCell>
        <mxCell id="tc51dqhHGQ9-r1dmS11I-1" value="Student" style="rounded=0;whiteSpace=wrap;html=1;" parent="1" vertex="1">
          <mxGeometry x="138" y="179" width="120" height="60" as="geometry" />
        </mxCell>
        <mxCell id="tc51dqhHGQ9-r1dmS11I-38" value="" style="edgeStyle=orthogonalEdgeStyle;rounded=0;orthogonalLoop=1;jettySize=auto;html=1;endArrow=none;endFill=0;" parent="1" source="tc51dqhHGQ9-r1dmS11I-2" target="tc51dqhHGQ9-r1dmS11I-37" edge="1">
          <mxGeometry relative="1" as="geometry" />
        </mxCell>
        <mxCell id="tc51dqhHGQ9-r1dmS11I-40" value="" style="edgeStyle=orthogonalEdgeStyle;rounded=0;orthogonalLoop=1;jettySize=auto;html=1;endArrow=none;endFill=0;entryX=0;entryY=0.5;entryDx=0;entryDy=0;" parent="1" source="tc51dqhHGQ9-r1dmS11I-2" target="tc51dqhHGQ9-r1dmS11I-39" edge="1">
          <mxGeometry relative="1" as="geometry" />
        </mxCell>
        <mxCell id="tc51dqhHGQ9-r1dmS11I-42" value="" style="edgeStyle=orthogonalEdgeStyle;rounded=0;orthogonalLoop=1;jettySize=auto;html=1;endArrow=none;endFill=0;" parent="1" source="tc51dqhHGQ9-r1dmS11I-2" target="tc51dqhHGQ9-r1dmS11I-41" edge="1">
          <mxGeometry relative="1" as="geometry" />
        </mxCell>
        <mxCell id="tc51dqhHGQ9-r1dmS11I-59" style="edgeStyle=orthogonalEdgeStyle;rounded=0;orthogonalLoop=1;jettySize=auto;html=1;exitX=0.25;exitY=0;exitDx=0;exitDy=0;entryX=0.5;entryY=1;entryDx=0;entryDy=0;endArrow=none;endFill=0;shape=link;" parent="1" source="tc51dqhHGQ9-r1dmS11I-2" target="tc51dqhHGQ9-r1dmS11I-58" edge="1">
          <mxGeometry relative="1" as="geometry" />
        </mxCell>
        <mxCell id="tc51dqhHGQ9-r1dmS11I-62" style="edgeStyle=orthogonalEdgeStyle;rounded=0;orthogonalLoop=1;jettySize=auto;html=1;exitX=0.75;exitY=1;exitDx=0;exitDy=0;entryX=0;entryY=0.5;entryDx=0;entryDy=0;endArrow=none;endFill=0;" parent="1" source="tc51dqhHGQ9-r1dmS11I-2" target="tc51dqhHGQ9-r1dmS11I-61" edge="1">
          <mxGeometry relative="1" as="geometry" />
        </mxCell>
        <mxCell id="tc51dqhHGQ9-r1dmS11I-2" value="Lecturer" style="rounded=0;whiteSpace=wrap;html=1;" parent="1" vertex="1">
          <mxGeometry x="652" y="474" width="120" height="54" as="geometry" />
        </mxCell>
        <mxCell id="tc51dqhHGQ9-r1dmS11I-22" style="edgeStyle=orthogonalEdgeStyle;rounded=0;orthogonalLoop=1;jettySize=auto;html=1;exitX=0;exitY=0.5;exitDx=0;exitDy=0;entryX=1;entryY=0.5;entryDx=0;entryDy=0;endArrow=none;endFill=0;" parent="1" source="tc51dqhHGQ9-r1dmS11I-4" target="tc51dqhHGQ9-r1dmS11I-16" edge="1">
          <mxGeometry relative="1" as="geometry" />
        </mxCell>
        <mxCell id="tc51dqhHGQ9-r1dmS11I-44" value="" style="edgeStyle=orthogonalEdgeStyle;rounded=0;orthogonalLoop=1;jettySize=auto;html=1;endArrow=none;endFill=0;" parent="1" source="tc51dqhHGQ9-r1dmS11I-4" target="tc51dqhHGQ9-r1dmS11I-14" edge="1">
          <mxGeometry relative="1" as="geometry" />
        </mxCell>
        <mxCell id="tc51dqhHGQ9-r1dmS11I-57" style="edgeStyle=orthogonalEdgeStyle;rounded=0;orthogonalLoop=1;jettySize=auto;html=1;exitX=0;exitY=0;exitDx=0;exitDy=0;entryX=1;entryY=0.5;entryDx=0;entryDy=0;shape=link;" parent="1" source="tc51dqhHGQ9-r1dmS11I-4" target="tc51dqhHGQ9-r1dmS11I-55" edge="1">
          <mxGeometry relative="1" as="geometry" />
        </mxCell>
        <mxCell id="tc51dqhHGQ9-r1dmS11I-60" style="edgeStyle=orthogonalEdgeStyle;rounded=0;orthogonalLoop=1;jettySize=auto;html=1;entryX=0.5;entryY=0;entryDx=0;entryDy=0;endArrow=none;endFill=0;exitX=0.5;exitY=1;exitDx=0;exitDy=0;" parent="1" source="tc51dqhHGQ9-r1dmS11I-4" target="tc51dqhHGQ9-r1dmS11I-58" edge="1">
          <mxGeometry relative="1" as="geometry" />
        </mxCell>
        <mxCell id="tc51dqhHGQ9-r1dmS11I-4" value="Courses" style="rounded=0;whiteSpace=wrap;html=1;" parent="1" vertex="1">
          <mxGeometry x="683" y="205" width="127" height="54.5" as="geometry" />
        </mxCell>
        <mxCell id="tc51dqhHGQ9-r1dmS11I-26" style="edgeStyle=orthogonalEdgeStyle;rounded=0;orthogonalLoop=1;jettySize=auto;html=1;entryX=1;entryY=0;entryDx=0;entryDy=0;endArrow=none;endFill=0;" parent="1" source="tc51dqhHGQ9-r1dmS11I-5" target="tc51dqhHGQ9-r1dmS11I-18" edge="1">
          <mxGeometry relative="1" as="geometry" />
        </mxCell>
        <mxCell id="tc51dqhHGQ9-r1dmS11I-28" style="edgeStyle=orthogonalEdgeStyle;rounded=0;orthogonalLoop=1;jettySize=auto;html=1;entryX=0.5;entryY=0;entryDx=0;entryDy=0;endArrow=none;endFill=0;" parent="1" source="tc51dqhHGQ9-r1dmS11I-5" target="tc51dqhHGQ9-r1dmS11I-20" edge="1">
          <mxGeometry relative="1" as="geometry" />
        </mxCell>
        <mxCell id="tc51dqhHGQ9-r1dmS11I-29" value="" style="edgeStyle=orthogonalEdgeStyle;rounded=0;orthogonalLoop=1;jettySize=auto;html=1;endArrow=none;endFill=0;" parent="1" source="tc51dqhHGQ9-r1dmS11I-5" target="tc51dqhHGQ9-r1dmS11I-19" edge="1">
          <mxGeometry relative="1" as="geometry" />
        </mxCell>
        <mxCell id="tc51dqhHGQ9-r1dmS11I-32" value="" style="edgeStyle=orthogonalEdgeStyle;rounded=0;orthogonalLoop=1;jettySize=auto;html=1;endArrow=none;endFill=0;exitX=1;exitY=0.25;exitDx=0;exitDy=0;entryX=0;entryY=0.5;entryDx=0;entryDy=0;" parent="1" source="tc51dqhHGQ9-r1dmS11I-5" target="tc51dqhHGQ9-r1dmS11I-31" edge="1">
          <mxGeometry relative="1" as="geometry" />
        </mxCell>
        <mxCell id="tc51dqhHGQ9-r1dmS11I-47" style="edgeStyle=orthogonalEdgeStyle;rounded=0;orthogonalLoop=1;jettySize=auto;html=1;entryX=0.5;entryY=1;entryDx=0;entryDy=0;endArrow=none;endFill=0;" parent="1" source="tc51dqhHGQ9-r1dmS11I-5" target="tc51dqhHGQ9-r1dmS11I-46" edge="1">
          <mxGeometry relative="1" as="geometry" />
        </mxCell>
        <mxCell id="tc51dqhHGQ9-r1dmS11I-5" value="Administration Staff" style="rounded=0;whiteSpace=wrap;html=1;" parent="1" vertex="1">
          <mxGeometry x="138" y="449" width="120" height="50" as="geometry" />
        </mxCell>
        <mxCell id="tc51dqhHGQ9-r1dmS11I-6" value="&lt;u&gt;StudentID&lt;/u&gt;" style="ellipse;whiteSpace=wrap;html=1;" parent="1" vertex="1">
          <mxGeometry x="44" y="120" width="100" height="50" as="geometry" />
        </mxCell>
        <mxCell id="tc51dqhHGQ9-r1dmS11I-7" value="name" style="ellipse;whiteSpace=wrap;html=1;" parent="1" vertex="1">
          <mxGeometry x="148" y="89" width="100" height="50" as="geometry" />
        </mxCell>
        <mxCell id="tc51dqhHGQ9-r1dmS11I-8" value="StaffID" style="ellipse;whiteSpace=wrap;html=1;" parent="1" vertex="1">
          <mxGeometry x="312" y="169" width="100" height="50" as="geometry" />
        </mxCell>
        <mxCell id="tc51dqhHGQ9-r1dmS11I-9" value="Student Email" style="ellipse;whiteSpace=wrap;html=1;" parent="1" vertex="1">
          <mxGeometry x="293" y="246" width="100" height="50" as="geometry" />
        </mxCell>
        <mxCell id="tc51dqhHGQ9-r1dmS11I-14" value="Course Name" style="ellipse;whiteSpace=wrap;html=1;" parent="1" vertex="1">
          <mxGeometry x="696.5" y="125" width="100" height="50" as="geometry" />
        </mxCell>
        <mxCell id="tc51dqhHGQ9-r1dmS11I-16" value="&lt;u&gt;CourseID&lt;/u&gt;" style="ellipse;whiteSpace=wrap;html=1;" parent="1" vertex="1">
          <mxGeometry x="547" y="212" width="100" height="50" as="geometry" />
        </mxCell>
        <mxCell id="tc51dqhHGQ9-r1dmS11I-18" value="Staff Email" style="ellipse;whiteSpace=wrap;html=1;" parent="1" vertex="1">
          <mxGeometry x="18" y="519" width="100" height="50" as="geometry" />
        </mxCell>
        <mxCell id="tc51dqhHGQ9-r1dmS11I-19" value="Staff Name" style="ellipse;whiteSpace=wrap;html=1;" parent="1" vertex="1">
          <mxGeometry x="343" y="495" width="100" height="50" as="geometry" />
        </mxCell>
        <mxCell id="tc51dqhHGQ9-r1dmS11I-20" value="Staff Department" style="ellipse;whiteSpace=wrap;html=1;" parent="1" vertex="1">
          <mxGeometry x="148" y="533" width="100" height="50" as="geometry" />
        </mxCell>
        <mxCell id="tc51dqhHGQ9-r1dmS11I-31" value="&lt;u&gt;StaffID&lt;/u&gt;" style="ellipse;whiteSpace=wrap;html=1;" parent="1" vertex="1">
          <mxGeometry x="343" y="431" width="100" height="50" as="geometry" />
        </mxCell>
        <mxCell id="tc51dqhHGQ9-r1dmS11I-37" value="&lt;u&gt;LecturerID&lt;/u&gt;" style="ellipse;whiteSpace=wrap;html=1;" parent="1" vertex="1">
          <mxGeometry x="615" y="566" width="100" height="50" as="geometry" />
        </mxCell>
        <mxCell id="tc51dqhHGQ9-r1dmS11I-39" value="Name" style="ellipse;whiteSpace=wrap;html=1;" parent="1" vertex="1">
          <mxGeometry x="743" y="419" width="100" height="50" as="geometry" />
        </mxCell>
        <mxCell id="tc51dqhHGQ9-r1dmS11I-41" value="Lecturer Email" style="ellipse;whiteSpace=wrap;html=1;" parent="1" vertex="1">
          <mxGeometry x="515" y="459" width="100" height="50" as="geometry" />
        </mxCell>
        <mxCell id="tc51dqhHGQ9-r1dmS11I-48" style="edgeStyle=orthogonalEdgeStyle;rounded=0;orthogonalLoop=1;jettySize=auto;html=1;entryX=0.5;entryY=1;entryDx=0;entryDy=0;shape=link;" parent="1" source="tc51dqhHGQ9-r1dmS11I-46" target="tc51dqhHGQ9-r1dmS11I-1" edge="1">
          <mxGeometry relative="1" as="geometry" />
        </mxCell>
        <mxCell id="tc51dqhHGQ9-r1dmS11I-46" value="Monitor" style="shape=rhombus;perimeter=rhombusPerimeter;whiteSpace=wrap;html=1;align=center;" parent="1" vertex="1">
          <mxGeometry x="190" y="323" width="120" height="60" as="geometry" />
        </mxCell>
        <mxCell id="tc51dqhHGQ9-r1dmS11I-55" value="Enrollment" style="shape=rhombus;perimeter=rhombusPerimeter;whiteSpace=wrap;html=1;align=center;" parent="1" vertex="1">
          <mxGeometry x="417" y="107.5" width="120" height="60" as="geometry" />
        </mxCell>
        <mxCell id="tc51dqhHGQ9-r1dmS11I-58" value="Teach" style="shape=rhombus;perimeter=rhombusPerimeter;whiteSpace=wrap;html=1;align=center;" parent="1" vertex="1">
          <mxGeometry x="554" y="308" width="120" height="60" as="geometry" />
        </mxCell>
        <mxCell id="tc51dqhHGQ9-r1dmS11I-61" value="CourseID" style="ellipse;whiteSpace=wrap;html=1;" parent="1" vertex="1">
          <mxGeometry x="804" y="528" width="100" height="45" as="geometry" />
        </mxCell>
        <mxCell id="tc51dqhHGQ9-r1dmS11I-71" value="StudentDOB" style="ellipse;whiteSpace=wrap;html=1;" parent="1" vertex="1">
          <mxGeometry x="-10" y="219" width="100" height="50" as="geometry" />
        </mxCell>
        <mxCell id="tc51dqhHGQ9-r1dmS11I-74" value="Age" style="ellipse;whiteSpace=wrap;html=1;align=center;dashed=1;fontFamily=Helvetica;fontSize=11;fontColor=default;labelBackgroundColor=default;" parent="1" vertex="1">
          <mxGeometry x="80" y="290" width="100" height="40" as="geometry" />
        </mxCell>
        <mxCell id="tc51dqhHGQ9-r1dmS11I-76" style="edgeStyle=orthogonalEdgeStyle;shape=connector;rounded=0;orthogonalLoop=1;jettySize=auto;html=1;exitX=0;exitY=0.75;exitDx=0;exitDy=0;entryX=0.99;entryY=0.328;entryDx=0;entryDy=0;entryPerimeter=0;strokeColor=default;align=center;verticalAlign=middle;fontFamily=Helvetica;fontSize=11;fontColor=default;labelBackgroundColor=default;endArrow=none;endFill=0;" parent="1" source="tc51dqhHGQ9-r1dmS11I-1" target="tc51dqhHGQ9-r1dmS11I-71" edge="1">
          <mxGeometry relative="1" as="geometry" />
        </mxCell>
      </root>
    </mxGraphModel>
  </diagram>
</mxfile>
